<svg xmlns="http://www.w3.org/2000/svg" viewBox="0 0 144 44" class="icon logo"><path d="M140.83 2.51a9.35 9.35 0 0 0-6.16-2c-3.9.1-7.28 2.25-10.06 4.21-.06-.44-.13-.87-.2-1.3s-.17-1.07-.23-1.61A2 2 0 0 0 122.23 0c-.76 0-1.56.67-1.55 2.3A5.71 5.71 0 0 1 118 7.13a11.85 11.85 0 0 1-4.83 1.82c-1.06.08-1.25-.41-1.66-1.84v-.13c-1.12-3.88-5.21-5.77-8.37-6.21a33.1 33.1 0 0 0-15.83 1.41 7.19 7.19 0 0 0-3.57 2.52c-1.23 1.88-.37 3.29.38 4.53.15.25.3.5.45.76a1.28 1.28 0 0 1 .12 1.24c-.05.21-.12.47-.17.79a37.66 37.66 0 0 1-4.44 12.75c-1.56 2.59-4.09 5.68-7.28 5.68s-8.16-5.17-10.08-7.11c-.35-.34-.59-.58-.72-.72-1.09-1-.89-1.58-.52-2.06A6.8 6.8 0 0 1 63.56 19l.24-.14a13 13 0 0 0 5.84-6.05 7.42 7.42 0 0 0-1.44-8.24 6.2 6.2 0 0 0-7.1-.81 36.52 36.52 0 0 0-4.25 2.82c-.37.3-1 0-1.9-.49a7.24 7.24 0 0 0-1.48-.66c-2.86-.77-6.19-.19-9.89 1.73-1.27.66-2.43 1.4-3.55 2.12a31 31 0 0 1-4.64 2.62h-.1a.54.54 0 0 1-.41.09 2.38 2.38 0 0 1-1.22-1.09 45.31 45.31 0 0 1-4-7.44 1.67 1.67 0 0 0-1.53-1.24 1.9 1.9 0 0 0-1.69 1.08 46 46 0 0 1-7 10.37 3.88 3.88 0 0 1-1.37 1 2 2 0 0 1-1.59-.23l-.49-.19a20.41 20.41 0 0 0-10.57-1C3 13.8.22 15.19 0 17.79a4.37 4.37 0 0 0 2.12 3.89 8 8 0 0 0 4.15 1.11c3.45.12 6.63-.61 11.82-4.6l.11-.08a2.08 2.08 0 0 1 .23-.17 10.23 10.23 0 0 1 1.84.91l.37.15a28.6 28.6 0 0 1 3.87 3l.39.33c1.31 1.11 2.29 1.06 2.87.83a3.1 3.1 0 0 0 1.16-1l3.51-4.24a.26.26 0 0 1 .21-.09.26.26 0 0 1 .2.11l.71 1A38.11 38.11 0 0 0 37 23.43c.71.75 2.08.62 3.09.52h.37a1.06 1.06 0 0 0 .89-.61 1.1 1.1 0 0 0-.08-1.1l-4.77-6.9a1.4 1.4 0 0 1-.31-.66 1.32 1.32 0 0 1 .57-.68c3.65-2.92 7.39-5.6 12.84-6.36a3.62 3.62 0 0 1 3.6 1.79 2.22 2.22 0 0 1 .15.89 6.63 6.63 0 0 1-1.12 3.09l-.23.45c-3.26 6-3.9 11.61-2 17.61.4 1.28.95 2.52 2.19 2.92s2.59-.21 3.74-1.59a12.79 12.79 0 0 0 2.18-4.91c.1-.36.21-.74.32-1.09l.1-.35a3.69 3.69 0 0 1 .32-.88l.15.13c5.47 5.26 10.12 8 13.45 8 6.26 0 10.16-6.69 11.29-8.93C87.28 29.42 91.21 31.38 96 31c3.73-.32 6-1.44 8.84-4.44a26.71 26.71 0 0 0 6.52-11.42c.11-.39.2-.73.28-1 .36-1.38.46-1.75 1.2-2.26a6.57 6.57 0 0 1 2.38-.81l.46-.1a20.53 20.53 0 0 0 4.47-1.54c-.15.58-.28 1.22-.39 1.74-.07.35-.13.64-.17.79-.42 1.49-.79 2.95-1.1 4.34a60.39 60.39 0 0 0-1.31 8.58c-.37 4.89-.59 10.5 1.53 15.13a14.61 14.61 0 0 0 1.12 2 4.55 4.55 0 0 0 2.52 1.99 2.68 2.68 0 0 0 .68.09 2.39 2.39 0 0 0 .87-.09 3.31 3.31 0 0 0 1.89-3.1 70.52 70.52 0 0 0-.2-10l-.06-1v-.31c-.07-1-.18-2.45.47-3.1a5.35 5.35 0 0 1 2.3-.86 11.31 11.31 0 0 0 1.42-.39 30.54 30.54 0 0 0 8.51-4.93 15.46 15.46 0 0 0 5.52-8.31 9.68 9.68 0 0 0-2.92-9.49zM26.73 8.36zm0 0c.06 0 .2 0 .44.32l.18.26a55.56 55.56 0 0 1 3.74 6 4.22 4.22 0 0 1-1.15 1.83 6.86 6.86 0 0 1-2.64 2.1 21.78 21.78 0 0 1-3.51-1.7A24.15 24.15 0 0 0 21.61 16a.69.69 0 0 1-.43-.34.82.82 0 0 1 .14-.64c.38-.61 4.51-6.31 5.41-6.67zm-23 10.76a1.58 1.58 0 0 1-.45-1.23A2 2 0 0 1 4 16.45a7.21 7.21 0 0 1 4.38-1.09 21.64 21.64 0 0 1 7.78 1.55c-1.8 1.5-5.59 2.87-9 3.18a4.32 4.32 0 0 1-3.4-.98zm118.5 13.38c0 1.86-.52 2.37-.6 2.4a1.32 1.32 0 0 1-.48-1c-.81-4-1.8-11.07-.08-16.46a41.13 41.13 0 0 1 .52 4.71c0 .67.09 1.29.15 1.92s.13 1.46.18 2.18l.08.75c.12 1.81.26 3.68.23 5.5zm3.52-9a1.92 1.92 0 0 1-.37-1.4v-.45l-.79-9.32c-.26-3.08.09-5.16 2.62-6.66a13.82 13.82 0 0 1 6.88-1.76 6.13 6.13 0 0 1 3.05.73c2.44 1.41 3 4.65 2.47 7.07-1.24 5.78-7.3 9.9-12.11 11.67a2.64 2.64 0 0 1-1.52.23.68.68 0 0 1-.23-.06zM107.94 10a.3.3 0 0 1-.13.05A32.55 32.55 0 0 1 87.14 8.1 1.93 1.93 0 0 1 86 7.16c-.15-.57.53-1.19 1.15-1.55A16 16 0 0 1 95 3.95h.62a21.79 21.79 0 0 1 6.56.94 11.84 11.84 0 0 1 3.76 2 8 8 0 0 1 1 1c.93 1.3 1.06 2 1 2.11zm-20.22 1.65a1.78 1.78 0 0 1 .52.14l.28.1a39.34 39.34 0 0 0 16.34 1.47c.18 0 .5-.09.93-.19a17.57 17.57 0 0 1 2.38-.43 9 9 0 0 1-1 3.44 31 31 0 0 1-4.78 7.4 10.42 10.42 0 0 1-7.39 4c-1.82.07-5-.66-6.42-2.51-1.18-1.56-2-4.45-2.11-7.55-.07-2.81.43-5.22 1.25-5.87zm-29.67-1.36A1.07 1.07 0 0 1 58 10c.21-.73 1.93-1.8 3-2.12a4.91 4.91 0 0 1 1.47-.23 4.39 4.39 0 0 1 2 .49 3 3 0 0 1 1.49 1.58 3.62 3.62 0 0 1-.07 2.06 10.35 10.35 0 0 1-3.05 5 9 9 0 0 1-3.7 2.07c-.17-1.24-.54-4.2-.77-6.12-.17-1.24-.29-2.2-.32-2.44zm-3.21 3.28A1.68 1.68 0 0 1 55 14a9.49 9.49 0 0 1 .36 3v.75a29.19 29.19 0 0 1-1.67 10.79 1.61 1.61 0 0 1-.71 1 .32.32 0 0 1-.31-.11 2 2 0 0 1-.51-1.15 20.62 20.62 0 0 1 1.25-12.11l.1-.25a6.62 6.62 0 0 1 1.33-2.34z" fill="#e72536"></path></svg>