<?xml version="1.0" encoding="UTF-8"?>
<svg width="16px" height="16px" viewBox="0 0 16 16" version="1.1" xmlns="http://www.w3.org/2000/svg" xmlns:xlink="http://www.w3.org/1999/xlink">
    <!-- Generator: Sketch 52.6 (67491) - http://www.bohemiancoding.com/sketch -->
    <title>noun_icon exit_2086039</title>
    <desc>Created with Sketch.</desc>
    <g id="Page-1" stroke="none" stroke-width="1" fill="none" fill-rule="evenodd">
        <g id="Artboard-Copy-4" transform="translate(-846.000000, -456.000000)" fill="#818181">
            <g id="Group-4" transform="translate(420.000000, 93.000000)">
                <g id="Group-5" transform="translate(0.000000, 197.000000)">
                    <g id="noun_icon-exit_2086039" transform="translate(426.000000, 166.000000)">
                        <path d="M8.6685912,7.9911191 L13.4016125,3.24950128 C13.568567,3.06246793 13.5606009,2.77742031 13.383462,2.60003046 C13.2063231,2.4226406 12.9216787,2.41466321 12.73491,2.58185426 L8,7.32158072 L3.26509003,2.58185426 C3.07832127,2.41466321 2.79367689,2.4226406 2.61653799,2.60003046 C2.43939909,2.77742031 2.43143298,3.06246793 2.5983875,3.24950128 L7.3314088,7.9911191 L2.5983875,12.7327369 C2.46433887,12.8681567 2.42463254,13.0709551 2.49769102,13.2470398 C2.57074949,13.4231246 2.74227423,13.5380336 2.9326831,13.5384526 C3.05754961,13.5392293 3.17742936,13.489436 3.26509003,13.4003839 L8,8.66065747 L12.73491,13.4003839 C12.8225706,13.489436 12.9424504,13.5392293 13.0673169,13.5384526 C13.2577258,13.5380336 13.4292505,13.4231246 13.502309,13.2470398 C13.5753675,13.0709551 13.5356611,12.8681567 13.4016125,12.7327369 L8.6685912,7.9911191 Z" id="Path" transform="translate(8.000000, 8.000000) rotate(-315.000000) translate(-8.000000, -8.000000) "></path>
                    </g>
                </g>
            </g>
        </g>
    </g>
</svg>