<?xml version="1.0" encoding="UTF-8"?>
<svg width="44px" height="47px" viewBox="0 0 44 47" version="1.1" xmlns="http://www.w3.org/2000/svg" xmlns:xlink="http://www.w3.org/1999/xlink">
    <!-- Generator: Sketch 52.6 (67491) - http://www.bohemiancoding.com/sketch -->
    <title>Group 12</title>
    <desc>Created with Sketch.</desc>
    <defs>
        <polygon id="path-1" points="0 0.17975102 43.9187249 0.17975102 43.9187249 46.8080673 0 46.8080673"></polygon>
        <polygon id="path-3" points="0 0.180361502 43.9187249 0.180361502 43.9187249 40.9204831 0 40.9204831"></polygon>
        <polygon id="path-5" points="0 0.178258537 38.9401235 0.178258537 38.9401235 38.8851878 0 38.8851878"></polygon>
    </defs>
    <g id="Page-1" stroke="none" stroke-width="1" fill="none" fill-rule="evenodd">
        <g id="Artboard" transform="translate(-169.000000, -88.000000)">
            <g id="Group" transform="translate(143.000000, 88.000000)">
                <g id="Group-12" transform="translate(26.000000, 0.000000)">
                    <g id="Group-3">
                        <mask id="mask-2" fill="white">
                            <use xlink:href="#path-1"></use>
                        </mask>
                        <g id="Clip-2"></g>
                        <path d="M41.8423668,0.179655102 L29.1828559,0.179655102 L21.9585939,7.37564286 L14.7347162,0.179655102 L2.0730917,0.179655102 C0.69641048,0.179655102 -9.6069869e-05,0.949687755 -9.6069869e-05,2.24861429 L-9.6069869e-05,38.7104469 C-9.6069869e-05,40.0064959 0.755973799,40.7819 2.0730917,40.7819 L15.8933188,40.7819 L21.9585939,46.8080673 L28.0221397,40.7819 L41.8423668,40.7819 C43.2136681,40.7819 43.918821,40.1035653 43.918821,38.7104469 L43.918821,2.24861429 C43.918821,0.996879592 43.2196245,0.179655102 41.8423668,0.179655102" id="Fill-1" fill="#B51434" mask="url(#mask-2)"></path>
                    </g>
                    <g id="Group-6">
                        <mask id="mask-4" fill="white">
                            <use xlink:href="#path-3"></use>
                        </mask>
                        <g id="Clip-5"></g>
                        <path d="M36.7425939,40.9204831 L41.8423668,40.9204831 C43.2136681,40.9204831 43.918821,40.2398446 43.918821,38.8419948 L43.918821,2.25632817 C43.918821,1.00014977 43.2196245,0.180342254 41.8423668,0.180342254 L29.1828559,0.180342254 L21.9585939,7.40076948 L14.7347162,0.180342254 L2.0730917,0.180342254 C0.69641048,0.180342254 -9.6069869e-05,0.952990141 -9.6069869e-05,2.25632817 L-9.6069869e-05,4.10922019 L36.7425939,40.9204831 Z" id="Fill-4" fill="#E95E27" mask="url(#mask-4)"></path>
                    </g>
                    <g id="Group-9">
                        <mask id="mask-6" fill="white">
                            <use xlink:href="#path-5"></use>
                        </mask>
                        <g id="Clip-8"></g>
                        <path d="M29.0366088,0.178163415 L21.8485647,7.31440244 L14.6609029,0.178163415 L2.06256471,0.178163415 C0.692976471,0.178163415 -3.82352941e-05,0.941802439 -3.82352941e-05,2.2299439 L-3.82352941e-05,38.3890317 C-3.82352941e-05,38.5651976 0.0152558824,38.7288073 0.0420205882,38.8851878 L11.1088441,27.8753927 L11.5514176,14.4498805 L18.7331529,20.2829488 L38.9401235,0.178163415 L29.0366088,0.178163415 Z" id="Fill-7" fill="#E20036" mask="url(#mask-6)"></path>
                    </g>
                    <polygon id="Fill-10" fill="#FFFFFF" points="29.418265 10 21.4997136 17.8614445 13.6201152 10 7 10 7 34 13.9157004 34 13.9157004 18.8317755 21.4976132 26.3996745 29.2030683 18.8317755 29.2030683 34 36 34 36 10"></polygon>
                </g>
            </g>
        </g>
    </g>
</svg>