<?xml version="1.0" encoding="UTF-8"?>
<svg width="22px" height="24px" viewBox="0 0 22 24" version="1.1" xmlns="http://www.w3.org/2000/svg" xmlns:xlink="http://www.w3.org/1999/xlink">
    <!-- Generator: Sketch 52.6 (67491) - http://www.bohemiancoding.com/sketch -->
    <title>Fill 1</title>
    <desc>Created with Sketch.</desc>
    <g id="Page-1" stroke="none" stroke-width="1" fill="none" fill-rule="evenodd">
        <g id="Artboard" transform="translate(-25.000000, -114.000000)" fill="#FFFFFE">
            <path d="M43.3086137,130.82871 L39.882486,130.82871 L39.882486,123.129956 L35.9986044,126.971104 L32.1768988,123.129956 L32.1768988,130.82871 L28.6910013,130.82871 L28.6910013,118.647318 L32.0279074,118.647318 L35.9996631,122.637457 L39.9910533,118.647318 L43.3086137,118.647318 L43.3086137,130.82871 Z M39.6184787,114 L35.9996631,117.610346 L32.3810401,114 L26.0384159,114 C25.3488977,114 25,114.386338 25,115.038031 L25,133.331534 C25,133.981783 25.3787345,134.370816 26.0384159,134.370816 L32.9614134,134.370816 L35.9996631,137.394244 L39.0370466,134.370816 L45.9599479,134.370816 C46.6468674,134.370816 47,134.030484 47,133.331534 L47,115.038031 C47,114.410015 46.649851,114 45.9599479,114 L39.6184787,114 Z" id="Fill-1"></path>
        </g>
    </g>
</svg>