<?xml version="1.0" encoding="UTF-8"?>
<svg width="20px" height="20px" viewBox="0 0 20 20" version="1.1" xmlns="http://www.w3.org/2000/svg" xmlns:xlink="http://www.w3.org/1999/xlink">
    <!-- Generator: Sketch 52.6 (67491) - http://www.bohemiancoding.com/sketch -->
    <title>noun_Search_875351</title>
    <desc>Created with Sketch.</desc>
    <g id="Page-1" stroke="none" stroke-width="1" fill="none" fill-rule="evenodd">
        <g id="Artboard" transform="translate(-25.000000, -40.000000)" fill="#FFFFFF" fill-rule="nonzero">
            <g id="noun_Search_875351" transform="translate(25.000000, 40.000000)">
                <path d="M19.6676698,18.1069959 L14.7627407,13.1961591 C17.2289062,9.98628258 16.9822896,5.34979424 14.022891,2.41426612 C12.4061825,0.795610425 10.3236428,0 8.21370119,0 C6.1037596,0 4.02121985,0.795610425 2.40451136,2.41426612 C-0.801503786,5.62414266 -0.801503786,10.8367627 2.40451136,14.0466392 C4.02121985,15.6652949 6.1037596,16.4609053 8.21370119,16.4609053 C9.96741887,16.4609053 11.7211366,15.9122085 13.173434,14.78738 L18.105765,19.6707819 C18.3249797,19.8902606 18.5989981,20 18.9004183,20 C19.1744367,20 19.4758569,19.8902606 19.6950717,19.6707819 C20.1060992,19.2592593 20.1060992,18.5459534 19.6676698,18.1069959 Z M8.24110303,14.2386831 C6.62439454,14.2386831 5.14469524,13.6076818 3.99381801,12.4828532 C1.66466171,10.1508916 1.66466171,6.33744856 3.99381801,3.97805213 C5.1172934,2.85322359 6.62439454,2.22222222 8.24110303,2.22222222 C9.85781152,2.22222222 11.3375108,2.85322359 12.488388,3.97805213 C13.6392653,5.10288066 14.2421057,6.61179698 14.2421057,8.23045267 C14.2421057,9.84910837 13.6118634,11.3305898 12.488388,12.4828532 C11.3649127,13.6351166 9.83040968,14.2386831 8.24110303,14.2386831 Z" id="Shape"></path>
            </g>
        </g>
    </g>
</svg>